#!OML:ASF E:\Steps\Project 1\Capture day 1\Session 2\Subject.ASF
:FULLY-SPECIFIED
:DEGREES
768
root 9.55839 20.97 -10.3017 -153.528 0.318814 176.132
lowerback -20.9942 -0.0251012 -7.66823
upperback 1.65856 1.93433 -0.95048
thorax 13.5426 0.308434 3.90656
lowerneck -2.51849 -1.7114 -1.70367
upperneck 21.6502 -4.4915 2.70791
head 7.1176 -2.68303 0.782118
rclavicle -6.1996e-015 2.5842e-015
rhumerus -35.1776 -14.1876 -78.6981
rradius 34.5028
rwrist -3.35015
rhand -9.35247 -51.7778
rfingers 7.12502
rthumb 16.6071 -81.0872
lclavicle -6.1996e-015 2.5842e-015
lhumerus -29.5539 -1.51751 81.7445
lradius 27.5762
lwrist -2.12676
lhand -20.092 -13.0642
lfingers 7.12502
lthumb 6.25096 16.8236
rfemur -19.0462 5.78473 17.6363
rtibia 12.7111
rfoot -14.6802 -6.8635
rtoes -36.6556
lfemur -65.0847 -8.0614 -21.1372
ltibia 55.6607
lfoot -13.7942 -1.58264
ltoes -23.6665
769
root 9.54237 21.0163 -10.3575 -153.228 0.190706 176.249
lowerback -21.1629 -0.101608 -7.81493
upperback 1.53734 1.86154 -0.87007
thorax 13.5 0.262123 4.06135
lowerneck -2.81793 -1.70397 -1.7809
upperneck 22.3696 -4.57001 2.60248
head 7.40808 -2.75583 0.740404
rclavicle -1.48716e-014 -2.14066e-014
rhumerus -35.47 -14.0386 -78.4609
rradius 34.4394
rwrist -3.56794
rhand -9.42994 -51.4322
rfingers 7.12502
rthumb 16.5325 -80.7479
lclavicle -1.48716e-014 -2.14066e-014
lhumerus -29.5315 -1.55685 81.9203
lradius 27.7934
lwrist -1.99681
lhand -20.1431 -13.1422
lfingers 7.12502
lthumb 6.20168 16.7471
rfemur -19.0486 5.99579 17.6075
rtibia 12.2803
rfoot -13.4428 -6.84892
rtoes -36.0771
lfemur -64.852 -8.13889 -21.0215
ltibia 55.1174
lfoot -13.8439 -1.58704
ltoes -24.3989
770
root 9.5192 21.0668 -10.4268 -152.996 0.0602984 176.455
lowerback -21.4387 -0.100636 -7.72145
upperback 1.45649 1.85121 -0.845922
thorax 13.5669 0.259144 4.0383
lowerneck -2.37 -1.82583 -1.7488
upperneck 22.0615 -4.76675 2.75323
head 7.2353 -2.84205 0.78108
rclavicle -1.53746e-014 7.18731e-015
rhumerus -35.8141 -14.092 -78.2651
rradius 34.5524
rwrist -3.57686
rhand -9.19678 -51.5333
rfingers 7.12502
rthumb 16.757 -80.8301
lclavicle -1.53746e-014 7.18731e-015
lhumerus -29.4731 -1.57973 82.0223
lradius 27.9025
lwrist -2.05049
lhand -20.224 -13.425
lfingers 7.12502
lthumb 6.1236 16.4665
rfemur -18.9421 5.87666 17.7237
rtibia 11.8737
rfoot -12.2156 -6.56033
rtoes -36.2586
lfemur -64.3638 -8.24773 -20.8563
ltibia 54.3295
lfoot -13.8869 -1.55187
ltoes -24.748
771
root 9.49465 21.1256 -10.4929 -152.859 -0.0285459 176.597
lowerback -21.5629 -0.078635 -7.63313
upperback 1.3746 1.86335 -0.896307
thorax 13.5442 0.273178 3.93618
lowerneck -2.23125 -1.8411 -1.65367
upperneck 21.8736 -4.82043 2.96748
head 7.15381 -2.84226 0.835458
rclavicle 1.1281e-014 1.63997e-015
rhumerus -36.3352 -14.4506 -78.0437
rradius 34.8061
rwrist -3.35103
rhand -9.12614 -51.6169
rfingers 7.12502
rthumb 16.825 -80.908
lclavicle 1.1281e-014 1.63997e-015
lhumerus -29.4686 -1.88265 82.0694
lradius 28.0828
lwrist -1.91521
lhand -20.0719 -13.1876
lfingers 7.12502
lthumb 6.27039 16.6996
rfemur -18.842 5.56291 17.7591
rtibia 11.6465
rfoot -10.9968 -6.15794
rtoes -35.7358
lfemur -63.7019 -8.33771 -20.7749
ltibia 53.3989
lfoot -13.794 -1.47199
ltoes -25.1707
772
root 9.47214 21.1852 -10.5514 -152.664 -0.054068 176.686
lowerback -21.6669 -0.131256 -7.71408
upperback 1.26198 1.80752 -0.89142
thorax 13.4759 0.243156 3.97072
lowerneck -2.84247 -1.85493 -2.04858
upperneck 22.7247 -5.02633 3.41793
head 7.56842 -2.94945 1.01119
rclavicle -4.79568e-015 2.40529e-014
rhumerus -36.6735 -14.6463 -77.7828
rradius 34.8549
rwrist -3.22768
rhand -9.094 -51.4666
rfingers 7.12502
rthumb 16.856 -80.755
lclavicle -4.79568e-015 2.40529e-014
lhumerus -29.5542 -2.21425 82.1789
lradius 28.3831
lwrist -1.46232
lhand -19.8339 -12.75
lfingers 7.12502
lthumb 6.50021 17.1303
rfemur -18.8246 5.3744 17.6801
rtibia 11.3923
rfoot -9.59394 -5.8563
rtoes -35.0355
lfemur -63.1509 -8.33591 -20.7683
ltibia 52.5054
lfoot -13.5791 -1.45443
ltoes -25.5186
773
root 9.45293 21.244 -10.6072 -152.475 0.0559807 176.682
lowerback -21.7419 -0.194781 -7.98476
upperback 1.18286 1.78757 -0.894582
thorax 13.4218 0.214934 4.11509
lowerneck -2.21622 -1.83744 -2.00113
upperneck 22.0435 -4.94037 3.47815
head 7.22982 -2.89904 1.04829
rclavicle -8.4235e-015 5.26779e-015
rhumerus -36.8681 -14.6589 -77.6187
rradius 34.9709
rwrist -3.32357
rhand -8.87479 -51.8048
rfingers 7.12502
rthumb 17.067 -81.0752
lclavicle -8.4235e-015 5.26779e-015
lhumerus -29.4618 -2.41935 82.3151
lradius 28.4998
lwrist -1.08817
lhand -19.8198 -12.8687
lfingers 7.12502
lthumb 6.51373 17.0111
rfemur -18.8506 5.30171 17.4292
rtibia 11.1299
rfoot -8.14841 -5.5544
rtoes -34.3816
lfemur -62.6199 -8.26752 -20.8779
ltibia 51.6691
lfoot -13.4591 -1.48937
ltoes -25.1531
774
root 9.4347 21.3031 -10.6663 -152.354 0.233036 176.638
lowerback -21.8096 -0.197003 -8.24176
upperback 1.13552 1.85819 -0.996308
thorax 13.3929 0.231127 4.16804
lowerneck -2.40438 -1.90695 -1.52109
upperneck 22.1976 -5.02556 3.13588
head 7.29796 -2.92733 0.845045
rclavicle -6.55989e-015 -4.42296e-014
rhumerus -37.2156 -14.7967 -77.5464
rradius 35.1563
rwrist -3.59724
rhand -8.90156 -51.9497
rfingers 7.12502
rthumb 17.0412 -81.2222
lclavicle -6.55989e-015 -4.42296e-014
lhumerus -29.248 -2.48792 82.3058
lradius 28.4938
lwrist -1.18175
lhand -19.9149 -13.3607
lfingers 7.12502
lthumb 6.42198 16.522
rfemur -18.9331 5.13288 17.1116
rtibia 11.0398
rfoot -6.78655 -5.25104
rtoes -32.3911
lfemur -61.9446 -8.2082 -21.0374
ltibia 50.7111
lfoot -13.3582 -1.45342
ltoes -25.0297
775
root 9.41344 21.3616 -10.7302 -152.229 0.275683 176.753
lowerback -22.0696 -0.260782 -8.28306
upperback 1.08339 1.80149 -1.01732
thorax 13.4881 0.195786 4.15426
lowerneck -1.84056 -1.92081 -1.75653
upperneck 21.8659 -5.13113 3.63708
head 7.11025 -2.97372 1.05313
rclavicle 4.47266e-016 -2.03754e-014
rhumerus -37.546 -14.8608 -77.4602
rradius 35.1648
rwrist -3.71762
rhand -9.29749 -51.5179
rfingers 7.12502
rthumb 16.6601 -80.8229
lclavicle 4.47266e-016 -2.03754e-014
lhumerus -29.2854 -2.38843 82.2338
lradius 28.5536
lwrist -1.40297
lhand -20.0198 -13.7463
lfingers 7.12502
lthumb 6.32072 16.1394
rfemur -19.0406 5.00705 17.0446
rtibia 11.0749
rfoot -5.4612 -5.17376
rtoes -31.7054
lfemur -61.204 -8.22017 -20.9917
ltibia 49.601
lfoot -13.1397 -1.29027
ltoes -25.9661
